<?xml version="1.0" encoding="utf-8"?>
<!-- Generator: Adobe Illustrator 22.1.0, SVG Export Plug-In . SVG Version: 6.00 Build 0)  -->
<svg version="1.1" id="Calque_1" xmlns="http://www.w3.org/2000/svg" xmlns:xlink="http://www.w3.org/1999/xlink" x="0px" y="0px"
	 viewBox="0 0 51 55" style="enable-background:new 0 0 51 55;" xml:space="preserve">
<style type="text/css">
	.st0{fill:#BFBFBF;}
</style>
<path class="st0" d="M50.7,0.2C50.5,0,50.2-0.1,49.9,0L19.2,4.1c-1.2-2-3.5-3.5-6-3.5c-3.9,0-7.1,3.3-7.1,7.2s3.2,7.2,7.1,7.2
	c1.9,0,3.6-0.7,4.8-1.9v27.2c-1.8-2.2-4.7-3.7-8-3.7c-5.5,0-10,4.1-10,9.1S4.5,55,10,55s10-4.1,10-9.1V12l29-3.8v22.9
	c-1.8-2.2-4.7-3.7-8-3.7c-5.5,0-10,4.1-10,9.1s4.5,9.1,10,9.1s10-4.1,10-9.1V1.1C51,0.6,50.9,0.3,50.7,0.2z M17.2,8.2h-3.6v3.7
	c0,0.2-0.2,0.4-0.4,0.4s-0.4-0.2-0.4-0.4V8.2H9.1C8.9,8.2,8.7,8,8.7,7.8c0-0.2,0.2-0.4,0.4-0.4h3.6V3.6c0-0.2,0.2-0.4,0.4-0.4
	s0.4,0.2,0.4,0.4v3.7h3.6c0.2,0,0.4,0.2,0.4,0.4C17.6,8,17.4,8.2,17.2,8.2z"/>
</svg>
