<?xml version="1.0" encoding="utf-8"?>
<!-- Generator: Adobe Illustrator 22.1.0, SVG Export Plug-In . SVG Version: 6.00 Build 0)  -->
<svg version="1.1" id="Calque_1" xmlns="http://www.w3.org/2000/svg" xmlns:xlink="http://www.w3.org/1999/xlink" x="0px" y="0px"
	 viewBox="0 0 57 40" style="enable-background:new 0 0 57 40;" xml:space="preserve">
<style type="text/css">
	.st0{fill:#FFFFFF;}
</style>
<g>
	<g id="Page-1">
		<g id="Icons" transform="translate(-843 -1808)">
			<g id="_x32_54---Fast-Backward-_x28_Solid_x29_" transform="translate(843 1808)">
				<path id="Fill-106" class="st0" d="M56.5,0.1c-0.3-0.2-0.7-0.1-1,0.1L29,18.8V1c0.4-0.3,0.6-0.9,0.2-1.4
					c-0.3-0.4-0.9-0.6-1.4-0.2c-0.3,0.2-0.4,0.5-0.4,0.8l-27,19c-0.5,0.3-0.6,0.9-0.2,1.4c0.1,0.1,0.2,0.2,0.2,0.2l27,19
					c0.5,0.3,1.1,0.2,1.4-0.2c0.1-0.2,0.2-0.4,0.2-0.6V21.2l26.4,18.6c0.3,0.2,0.7,0.2,1,0.1c0.3-0.2,0.5-0.5,0.5-0.9V1
					C57,0.6,56.8,0.3,56.5,0.1"/>
			</g>
		</g>
	</g>
</g>
</svg>
