<?xml version="1.0" encoding="utf-8"?>
<!-- Generator: Adobe Illustrator 22.1.0, SVG Export Plug-In . SVG Version: 6.00 Build 0)  -->
<svg version="1.1" id="Calque_1" xmlns="http://www.w3.org/2000/svg" xmlns:xlink="http://www.w3.org/1999/xlink" x="0px" y="0px"
	 viewBox="0 0 57 40" style="enable-background:new 0 0 57 40;" xml:space="preserve">
<style type="text/css">
	.st0{fill:#BFBFBF;}
</style>
<g>
	<g id="Page-1">
		<g id="Icons" transform="translate(-843 -1808)">
			<g id="_x32_54---Fast-Backward-_x28_Solid_x29_" transform="translate(843 1808)">
				<path id="Fill-106" class="st0" d="M0.5,39.1c0.3,0.2,0.7,0.1,1-0.1L28,20.4v17.8c-0.4,0.3-0.6,0.9-0.2,1.4
					c0.3,0.4,0.9,0.6,1.4,0.2c0.3-0.2,0.4-0.5,0.4-0.8l27-19c0.5-0.3,0.6-0.9,0.2-1.4c-0.1-0.1-0.2-0.2-0.2-0.2l-27-19
					c-0.5-0.3-1.1-0.2-1.4,0.2C28.1-0.2,28,0,28,0.2V18L1.6-0.6c-0.3-0.2-0.7-0.2-1-0.1C0.2-0.5,0-0.2,0,0.2v38
					C0,38.6,0.2,38.9,0.5,39.1"/>
			</g>
		</g>
	</g>
</g>
</svg>
