<?xml version="1.0" encoding="utf-8"?>
<!-- Generator: Adobe Illustrator 22.1.0, SVG Export Plug-In . SVG Version: 6.00 Build 0)  -->
<svg version="1.1" id="Calque_1" xmlns="http://www.w3.org/2000/svg" xmlns:xlink="http://www.w3.org/1999/xlink" x="0px" y="0px"
	 viewBox="0 0 58 44" style="enable-background:new 0 0 58 44;" xml:space="preserve">
<style type="text/css">
	.st0{fill:#BFBFBF;}
</style>
<g>
	<g id="Page-1">
		<g id="Icons" transform="translate(-839 -353)">
			<g id="_x37_--Lovestruck--_x28_Solid_x29_" transform="translate(839 353)">
				<path id="Fill-170" class="st0" d="M57.3,39.6l-2.6-5.8c-0.1-0.3-0.4-0.5-0.8-0.6c-0.4,0-0.7,0.1-0.9,0.4l-1.4,1.8l-6.1-4.1
					c1.5-1.6,2.8-3,3.5-3.7c4-4.5,5.1-10.6,2.9-15.4C50.2,8.2,46.6,6,42.2,6c-4.1,0-7.3,1.7-9.2,4.7C31.1,7.7,28,6,23.9,6
					c-3.8,0-7,1.7-8.9,4.7l-3-1.8l-1.1-5.3c-0.1-0.3-0.2-0.5-0.4-0.6L6,0.2C5.6-0.1,4.9,0,4.6,0.5C4.5,0.7,4.5,1,4.5,1.2l1,4.7
					l-4.7,1C0.3,7-0.1,7.6,0.1,8.1c0.1,0.3,0.2,0.5,0.4,0.6l4.3,2.8c0.2,0.1,0.5,0.2,0.8,0.1l5.3-1.1l3.2,1.9
					c-2,4.8-0.8,10.7,3.1,15.1c2.6,2.9,15.1,16,15.3,16.1c0.4,0.4,1,0.4,1.4,0c0,0,0,0,0,0c0.1-0.1,5.9-6.1,10.4-10.9l6.3,4.2
					l-1,1.3c-0.3,0.4-0.3,1.1,0.2,1.4c0.1,0.1,0.3,0.2,0.4,0.2l6.2,1.1c0.5,0.1,1.1-0.3,1.2-0.8C57.4,40,57.4,39.8,57.3,39.6"/>
			</g>
		</g>
	</g>
</g>
</svg>
