<?xml version="1.0" encoding="utf-8"?>
<!-- Generator: Adobe Illustrator 22.1.0, SVG Export Plug-In . SVG Version: 6.00 Build 0)  -->
<svg version="1.1" id="Calque_1" xmlns="http://www.w3.org/2000/svg" xmlns:xlink="http://www.w3.org/1999/xlink" x="0px" y="0px"
	 viewBox="0 0 56 56" style="enable-background:new 0 0 56 56;" xml:space="preserve">
<style type="text/css">
	.st0{fill:url(#Fill-703_1_);}
</style>
<g>
	<g>
		<g id="Page-1_8_">
			<g id="Icons_8_" transform="translate(-962 -479)">
				<g id="_x33_63---Menu-_x28_Solid_x29__8_" transform="translate(962 479)">
					<linearGradient id="Fill-703_1_" gradientUnits="userSpaceOnUse" x1="0" y1="28" x2="56" y2="28">
						<stop  offset="0" style="stop-color:#5BF1D9"/>
						<stop  offset="1" style="stop-color:#84F4FB"/>
					</linearGradient>
					<path id="Fill-703_8_" class="st0" d="M28,0C12.6,0,0,12.6,0,28s12.6,28,28,28s28-12.6,28-28S43.4,0,28,0z M40,41H16
						c-1.1,0-2-0.9-2-2s0.9-2,2-2h24c1.1,0,2,0.9,2,2S41.1,41,40,41z M40,30H16c-1.1,0-2-0.9-2-2s0.9-2,2-2h24c1.1,0,2,0.9,2,2
						S41.1,30,40,30z M40,19H16c-1.1,0-2-0.9-2-2s0.9-2,2-2h24c1.1,0,2,0.9,2,2S41.1,19,40,19z"/>
				</g>
			</g>
		</g>
	</g>
</g>
</svg>
