<?xml version="1.0" encoding="utf-8"?>
<!-- Generator: Adobe Illustrator 22.1.0, SVG Export Plug-In . SVG Version: 6.00 Build 0)  -->
<svg version="1.1" id="Calque_1" xmlns="http://www.w3.org/2000/svg" xmlns:xlink="http://www.w3.org/1999/xlink" x="0px" y="0px"
	 viewBox="0 0 55 57" style="enable-background:new 0 0 55 57;" xml:space="preserve">
<style type="text/css">
	.st0{fill:url(#Fill-708_1_);}
</style>
<g>
	<g id="Page-1">
		<g id="Icons" transform="translate(-363 -359)">
			<g id="_x33_78---Search-_x28_Solid_x29_" transform="translate(363 359)">
				<linearGradient id="Fill-708_1_" gradientUnits="userSpaceOnUse" x1="0" y1="28.483" x2="54.9975" y2="28.483">
					<stop  offset="0" style="stop-color:#5BF1D9"/>
					<stop  offset="1" style="stop-color:#84F4FB"/>
				</linearGradient>
				<path id="Fill-708" class="st0" d="M54.2,51.9L40.6,37.8C44.1,33.6,46,28.4,46,23C46,10.3,35.7,0,23,0S0,10.3,0,23
					s10.3,23,23,23c4.8,0,9.3-1.4,13.2-4.2L49.8,56c0.6,0.6,1.3,0.9,2.2,0.9c1.7,0,3-1.3,3-3C55,53.2,54.7,52.4,54.2,51.9z M23,6
					c9.4,0,17,7.6,17,17s-7.6,17-17,17S6,32.4,6,23S13.6,6,23,6z"/>
			</g>
		</g>
	</g>
</g>
</svg>
